<svg id="Layer_1" enable-background="new 0 0 24 24" viewBox="0 0 24 24" xmlns="http://www.w3.org/2000/svg" xmlns:xlink="http://www.w3.org/1999/xlink"><linearGradient id="SVGID_1_" gradientUnits="userSpaceOnUse" x1="-.029" x2="22.786" y1="-.029" y2="22.786"><stop offset="0" stop-color="#eb25a1"/><stop offset="1" stop-color="#980de4"/></linearGradient><path d="m12 .3c-6.5 0-11.7 5.2-11.7 11.7s5.2 11.8 11.7 11.8 11.8-5.3 11.8-11.8-5.3-11.7-11.8-11.7zm-1.5 17.5c-.5.5-1.1.7-1.7.7s-1.2-.2-1.7-.7l-1.4-1.4c-.5-.4-.7-1-.7-1.6s.2-1.2.7-1.7l3.6-3.6c.9-.9 2.5-.9 3.4 0l1.4 1.4-1.1 1.1-1.4-1.4c-.3-.3-.9-.3-1.3 0l-3.6 3.6c-.2.2-.3.4-.3.6s.1.5.3.6l1.4 1.4c.3.3.9.3 1.3 0l1.1-1.1 1.1 1.1zm7.8-6.9-3.6 3.6c-.5.5-1.1.7-1.7.7s-1.2-.2-1.7-.7l-1.4-1.4 1.1-1.1 1.4 1.4c.3.3.9.3 1.3 0l3.6-3.6c.3-.3.3-.9 0-1.3l-1.4-1.4c-.3-.3-.9-.3-1.3 0l-1.1 1.1-1.1-1.1 1.1-1.1c.9-.9 2.5-.9 3.4 0l1.4 1.4c.9 1.1.9 2.6 0 3.5z" fill="url(#SVGID_1_)"/></svg>